<svg xmlns="http://www.w3.org/2000/svg" width="100" height="100" fill="none" viewBox="0 0 100 100">
  <path fill="#000" d="M69.09 93.918c-2.065.153-3.559-.705-4.875-2.024-7.38-7.39-14.767-14.771-22.151-22.155-4.9-4.9-9.721-9.88-14.73-14.667-2.747-2.625-2.75-7.062-.006-9.744 8.262-8.072 16.379-16.293 24.533-24.475 1.832-1.837 4.01-2.337 6.416-1.677 2.35.645 3.856 2.318 4.331 4.674.434 2.156-.06 4.181-1.696 5.814-4.58 4.568-9.152 9.143-13.724 13.719-2.021 2.023-4.006 4.084-6.068 6.065-.634.61-.552.934.017 1.5 8.18 8.154 16.34 16.327 24.505 24.495 2.599 2.6 5.189 5.21 7.797 7.8 3.244 3.223 2.059 9.36-3.032 10.613-.492.122-.969.009-1.316.062Zm-.235-74.986c-3.11.303-6.157-2.808-6.152-5.712.006-3.826 2.458-6.756 5.7-6.763 3.819-.008 6.787 2.472 6.79 5.674.003 4.24-2.371 6.788-6.338 6.801Z"/>
</svg>
