<svg xmlns="http://www.w3.org/2000/svg" width="100" height="100" fill="none" viewBox="0 0 100 100">
  <path fill="#000" d="M93.945 50.088c0 7.31-.064 14.62.025 21.928.049 4.016-3.011 8.136-7.247 9.07a8.32 8.32 0 0 1-1.827.201c-4.264-.01-8.528.005-12.792-.02-.633-.004-1.073.175-1.514.643-4.102 4.355-9.122 7.196-14.981 8.264-8.43 1.536-16.128-.362-22.948-5.618a23.281 23.281 0 0 1-3.003-2.773c-.339-.372-.67-.512-1.171-.51-4.296.018-8.594-.033-12.89.017-4.653.054-9.193-4.082-9.153-9.183.045-5.782.008-11.565.01-17.348 0-1.886 1.253-3.086 3.214-3.088 1.763-.002 3.024 1.278 3.025 3.083.003 5.49 0 10.98.002 16.47 0 2.525 1.3 3.836 3.809 3.84 2.506.003 5.013-.02 7.519.007.73.008.913-.135.58-.863-1.775-3.877-2.618-7.976-2.49-12.22.366-12.038 7.98-22.834 20.09-26.304 2.817-.807 5.686-1.299 8.602-1.131 10.524.605 18.676 5.238 24.042 14.423 1.244 2.13.367 4.246-1.922 4.912-1.331.387-2.776-.335-3.612-1.81-2.798-4.932-6.91-8.305-12.289-10.054-10.696-3.477-22.167 1.26-26.715 11.844-1.568 3.647-2.077 7.452-1.633 11.44.95 8.529 7.101 15.688 15.399 18.154 11.321 3.365 22.93-3.07 26.658-13.607.768-2.171 2.62-3.123 4.46-2.32 1.461.636 2.2 2.213 1.773 3.758-.304 1.095-.757 2.131-1.23 3.158-.227.495-.1.613.41.611 2.767-.012 5.535.051 8.3-.016 1.95-.047 3.202-1.43 3.25-3.41.027-1.07.01-2.143.01-3.215 0-13.19 0-26.378-.002-39.567 0-2.42-1.295-3.708-3.733-3.71-5.599-.003-11.198-.03-16.796.017-1.47.012-2.45-.55-3.18-1.792-1.166-1.984-2.423-3.916-3.6-5.895-.686-1.157-1.722-1.67-2.99-1.677-4.817-.029-9.635-.029-14.452.002-1.27.007-2.294.544-2.975 1.698-1.187 2.01-2.431 3.986-3.641 5.982-.652 1.076-1.526 1.677-2.852 1.67-5.663-.027-11.327-.01-16.991-.005-2.55.002-3.798 1.266-3.799 3.83 0 1.884.007 3.769-.002 5.653-.009 1.696-1.386 2.997-3.144 2.99-1.769-.007-3.092-1.298-3.094-3.027-.003-2.177.03-4.354-.004-6.53-.078-5.06 4.444-9.205 9.168-9.148 5.044.06 10.09-.002 15.135.023.674.004 1.044-.214 1.383-.794.966-1.65 1.902-3.333 3.044-4.86 1.83-2.446 4.336-3.72 7.448-3.715 5.078.01 10.156-.007 15.234.008 3.431.01 6.007 1.622 7.883 4.394.909 1.342 1.719 2.753 2.512 4.167.327.583.699.803 1.377.8 5.078-.027 10.156.03 15.233-.025 3.449-.038 7.808 2.543 8.886 7.231.154.673.193 1.339.193 2.02-.003 7.309-.002 14.618-.002 21.927Z"/>
  <path fill="#000" d="M53.319 50.103c.002 1.764-1.261 3.031-3.007 3.116-3.782.184-6.687 1.824-8.483 5.231-.656 1.245-1.693 1.857-3.087 1.76-1.226-.086-2.104-.729-2.63-1.86-.455-.983-.392-1.93.106-2.865 2.455-4.608 6.23-7.4 11.4-8.332.876-.158 1.739-.144 2.61-.153 1.833-.019 3.088 1.254 3.09 3.103Zm24.987 10.713c.26 1.923-1.235 3.254-2.365 3.485-1.708.35-3.227-.466-3.739-2.008-.35-1.054-.424-2.16-.293-3.251.156-1.303 1.52-2.453 2.831-2.504 1.628-.063 3.023.832 3.33 2.235.15.684.355 1.382.236 2.043ZM6.452 44.342c-.164-1.27.212-2.487 1.605-3.244 2.107-1.143 4.622.327 4.637 2.717.004.648.02 1.297-.003 1.944-.055 1.593-1.453 2.781-3.236 2.769-1.595-.012-2.964-1.294-3.001-2.815-.01-.389-.002-.778-.002-1.37Z"/>
</svg>
