<svg xmlns="http://www.w3.org/2000/svg" width="100" height="100" fill="none" viewBox="0 0 100 100">
  <path fill="#000" d="M50.156 84.4c-4.71 0-9.422.028-14.132-.009-4.908-.038-9.262-1.722-13.113-4.698-4.56-3.525-7.314-8.203-8.436-13.824-.294-1.476-.389-3.012-.395-4.522-.037-8.641-.064-17.284-.01-25.925.06-9.628 5.407-17.834 14.414-21.476 2.21-.893 4.513-1.353 6.915-1.511 2.11-.139 4.213-.112 6.318-.119 2.686-.009 4.54 1.803 4.481 4.277-.05 2.085-1.858 3.866-3.944 3.873-1.82.006-3.64-.03-5.458.007-7.113.147-13.06 4.967-14.342 12.25a17 17 0 0 0-.255 2.984c.03 8.706-.05 17.414.04 26.12.074 7.056 5.016 12.976 11.868 14.22 1.125.204 2.251.269 3.372.273 8.447.034 16.894.007 25.34.03 3.856.012 7.348-1.015 10.262-3.584 2.925-2.58 4.575-5.823 4.922-9.762.2-2.273.093-4.539.168-6.806.057-1.737 1.063-3.076 2.795-3.64 1.517-.494 3.532.123 4.427 1.404.483.691.795 1.444.775 2.342-.046 2.014-.017 4.029-.014 6.043.007 5.028-1.698 9.468-4.744 13.398-3.308 4.269-7.665 6.958-12.915 8.179-1.28.297-2.584.489-3.914.483-4.808-.018-9.617-.007-14.425-.008Z"/>
</svg>
