<svg xmlns="http://www.w3.org/2000/svg" width="100" height="100" fill="none" viewBox="0 0 100 100">
  <path fill="#000" d="M50.358 84.399c-4.678 0-9.356.008-14.033-.002-8.629-.02-17.289-6.053-20.333-14.116-1.072-2.836-1.624-5.74-1.608-8.782.046-9.128.011-18.255.05-27.382.02-4.753 1.674-8.984 4.507-12.731 3.565-4.715 8.346-7.554 14.136-8.679 1.073-.208 2.175-.268 3.28-.251 2.078.032 4.158-.031 6.236.02 2.128.051 3.837 1.909 3.787 4.016-.05 2.155-1.854 3.956-3.991 3.968-1.917.011-3.835-.044-5.75.012-6.907.2-12.573 5.122-13.85 11.479a18.806 18.806 0 0 0-.378 3.746c.01 8.77-.061 17.542.026 26.311.072 7.287 5.438 12.886 11.693 14.034 1.245.228 2.49.367 3.756.367 8.51-.005 17.021.018 25.532-.01 6.997-.022 12.392-4.379 14.229-10.295.472-1.522.674-3.084.708-4.666.036-1.721.001-3.443.01-5.165.011-2.179 1.75-3.829 4.023-3.83 2.186-.002 3.953 1.687 3.964 3.806.01 1.917.016 3.833 0 5.75-.06 6.648-2.622 12.19-7.51 16.642-3.464 3.155-7.552 5.013-12.229 5.593a24.02 24.02 0 0 1-2.905.163c-4.45.01-8.9.004-13.35.002Z"/>
  <path fill="#000" d="M49.22 62.586c-1.42.005-3.263-.762-4.773-2.262-4.307-4.28-8.597-8.578-12.88-12.882-1.693-1.702-1.75-4.164-.176-5.724 1.696-1.68 4.167-1.7 5.904.02 3.947 3.904 7.869 7.836 11.8 11.758.562.56 1.077.536 1.547-.07 8.08-10.394 16.164-20.783 24.237-31.182.998-1.285 2.296-1.961 3.88-1.719 1.78.273 2.97 1.369 3.397 3.169.316 1.33-.108 2.48-.922 3.526-3.589 4.61-7.176 9.22-10.76 13.832-4.72 6.072-9.44 12.142-14.15 18.222-1.621 2.094-3.671 3.318-7.105 3.312Z"/>
</svg>
