<svg xmlns="http://www.w3.org/2000/svg" width="100" height="100" fill="none" viewBox="0 0 100 100">
  <path fill="#000" d="M50.231 93.95c-9.356 0-18.713-.049-28.068.02-4.936.037-9.328-4.238-9.31-9.34.045-14.033.016-28.068.017-42.102 0-1.835 1.288-3.139 3.084-3.133 1.875.007 3.143 1.29 3.143 3.178l.007 41.323c0 2.616 1.231 3.844 3.87 3.844 18.258 0 36.516 0 54.773-.003 2.44 0 3.736-1.29 3.736-3.693 0-16.081-.007-32.162.018-48.243 0-.855-.16-1.149-1.094-1.134-3.897.06-7.796.03-11.694.021-4.106-.009-7.965-3.137-8.853-7.14a9.953 9.953 0 0 1-.215-2.208c.012-3.866-.014-7.731.024-11.597.007-.747-.222-.905-.935-.903-11.988.024-23.975.018-35.963.023-2.378 0-3.676 1.3-3.673 3.655.003 1.917.008 3.834.004 5.75-.004 1.767-1.36 3.07-3.17 3.063-1.733-.007-3.058-1.333-3.06-3.068-.002-2.177-.01-4.354 0-6.53.022-5.2 4.552-9.109 9.114-9.096 13.611.037 27.223.021 40.835 0 .958 0 1.686.351 2.326.99 7.18 7.172 14.36 14.346 21.539 21.522.635.635 1.035 1.348 1.035 2.306-.012 17.77-.005 35.54-.004 53.31 0 4.204-3.03 8.02-7.11 8.965a9.247 9.247 0 0 1-2.112.228c-9.421-.011-18.843-.007-28.264-.008Zm15.664-76.372c0 2.677-.073 5.27.026 7.855.063 1.607.937 2.505 2.525 2.898 1.435.356 2.907.101 4.36.144 1.31.038 2.622.008 3.999.008l-10.91-10.905Z"/>
  <path fill="#000" d="M19.1 32.58c.16 1.128-.145 2.256-1.259 3.077-1.005.74-2.104.847-3.194.314-1.114-.544-1.786-1.458-1.777-2.767.004-.649-.02-1.297.003-1.945.055-1.55 1.468-2.791 3.142-2.778 1.631.012 3.05 1.32 3.083 2.847.008.356.001.713.001 1.252Z"/>
</svg>
