<svg xmlns="http://www.w3.org/2000/svg" width="101" height="100" fill="none" viewBox="0 0 101 100">
  <g clip-path="url(#a)">
    <path fill="#000" d="M100.195 18.909c-.524 2.533-2.144 4.328-3.916 6.088-8.759 8.697-17.471 17.44-26.2 26.167-.115.115-.224.236-.345.344-.73.649-1.463.68-2.084.095-.627-.591-.656-1.462.019-2.166 1.213-1.266 2.469-2.49 3.709-3.73 3.904-3.903 7.795-7.818 11.727-11.693.577-.568.514-.88-.026-1.382a53.307 53.307 0 0 1-2.892-2.894c-.466-.505-.739-.484-1.218-.002-5.244 5.277-10.51 10.53-15.77 15.79C50.016 58.71 36.835 71.896 23.64 85.07c-.474.474-.644.913-.614 1.609.038.922-.149 1.866-.34 2.78-.129.615-.015.89.627.79 1.31-.206 2.617-.426 3.924-.652.41-.071.656-.394.931-.67 11.339-11.342 22.678-22.685 34.02-34.026 1.096-1.097 1.963-1.27 2.66-.542.732.765.572 1.464-.603 2.638-11.507 11.507-23.02 23.009-34.508 34.534-.718.72-1.6.955-2.483 1.241-4.553 1.476-9.12 2.908-13.665 4.403-1.542.507-2.905 1.426-4.364 2.126C4.98 101.34.285 98.413.407 93.8c.022-.815.147-1.628.563-2.34 2.446-4.184 3.551-8.873 5.076-13.403A258.7 258.7 0 0 0 7.91 72.24a3.67 3.67 0 0 1 .954-1.549c7.213-7.205 14.418-14.42 21.625-21.631.299-.299.579-.626.916-.873.627-.459 1.317-.447 1.876.073.596.554.616 1.259.178 1.946-.12.188-.304.336-.464.496-6.98 6.982-13.954 13.97-20.951 20.934-.758.754-1.383 1.478-1.43 2.633-.037.895-.306 1.78-.466 2.67-.105.59 0 .952.745.804 1.138-.225 2.266-.524 3.457-.368.6.079.857-.527 1.207-.876 7.472-7.454 14.931-14.921 22.395-22.385 10.815-10.816 21.624-21.638 32.466-32.428.714-.71.731-1.09-.016-1.733-.933-.803-1.798-1.695-2.617-2.616-.549-.618-.882-.568-1.45.003-6.479 6.518-12.986 13.009-19.485 19.507-2.825 2.825-5.643 5.656-8.477 8.47-.971.964-2.276.749-2.636-.408-.225-.722.13-1.23.62-1.719 3.36-3.344 6.707-6.702 10.059-10.054 10.009-10.01 20.03-20.008 30.013-30.045C77.824 1.688 79.437.773 81.287.195h2.923c2.506.667 4.302 2.339 6.03 4.153a167.845 167.845 0 0 0 5.844 5.848c1.849 1.758 3.531 3.592 4.111 6.179v2.534ZM19.967 83.58c.8.336 1.292-.255 1.829-.792 11.434-11.44 22.873-22.876 34.31-34.313 6.89-6.89 13.777-13.783 20.679-20.66.482-.481.743-.806.097-1.386a34.273 34.273 0 0 1-2.822-2.826c-.593-.673-.928-.555-1.511.031-9.904 9.94-19.832 19.854-29.754 29.776-8.496 8.497-16.99 16.997-25.485 25.497-.268.269-.615.489-.556.962.141 1.147-.11 2.261-.343 3.369-.155.739.174.864.781.747.89-.171 1.775-.381 2.775-.405ZM97.29 17.72c-.07-1.357-.463-2.62-1.44-3.606-3.176-3.208-6.34-6.43-9.593-9.56-2.069-1.99-5.068-1.929-7.119.026-1.527 1.456-2.98 2.989-4.493 4.461-.39.38-.402.63-.008 1.007 1.03.99 2.028 2.012 3.04 3.022 4.181 4.177 8.36 8.356 12.547 12.528.288.288.501.787 1.06.203 1.502-1.572 3.08-3.073 4.602-4.626.928-.946 1.298-2.141 1.404-3.454Zm-77.017 74.2c-.548-.89-.695-1.795-.52-2.751.098-.539.216-1.074.31-1.614.165-.947-.011-1.127-.935-.963-.51.09-1.014.206-1.523.296-2.698.476-4.584-1.424-4.09-4.118.1-.54.2-1.08.311-1.618.143-.686-.095-.988-.81-.834-.222.048-.442.107-.666.133-1.112.129-2.256.575-3.321-.065-.563-.338-.642-.048-.772.36-.647 2.031-1.285 4.066-1.959 6.09-.163.488.006.776.335 1.102a744.944 744.944 0 0 1 5.843 5.86c.301.304.582.479 1.023.333 2.235-.737 4.473-1.462 6.774-2.211Zm68.37-63.36c.016-.41-.168-.513-.3-.647a392.761 392.761 0 0 0-1.852-1.867c-4.587-4.596-9.178-9.188-13.76-13.79-.393-.395-.687-.745-1.202-.107a10.121 10.121 0 0 1-1.586 1.576c-.729.576-.706.958-.03 1.624 4.534 4.467 9.013 8.989 13.527 13.475.795.79 1.54 2.233 2.447 2.142.883-.09 1.637-1.434 2.456-2.22.115-.11.276-.172.3-.186ZM6.656 97.08c.948-.053 1.876-.763 2.91-1.205.473-.202.497-.393.124-.753-1.002-.968-1.928-2.02-2.976-2.936-.645-.563-1.138-1.886-1.99-1.489-.658.307-.986 1.522-1.254 2.433-.579 1.97.902 3.954 3.186 3.95Z"/>
  </g>
  <defs>
    <clipPath id="a">
      <path fill="#fff" d="M0 0h100.195v100H0z"/>
    </clipPath>
  </defs>
</svg>
