<svg xmlns="http://www.w3.org/2000/svg" width="100" height="100" fill="none" viewBox="0 0 100 100">
  <g clip-path="url(#a)">
    <path fill="#000" d="M4.864 100.002c-.155-1.796.73-2.228 2.155-2.142 1.486.09 2.982.004 4.473.034.605.013.854-.145.838-.815-.044-1.782-.003-3.566-.003-5.35l-.003-80.443c0-4.556 3.205-7.76 7.739-7.76 20.395.003 40.79.03 61.184-.022 4.507-.012 7.715 3.857 7.705 7.637-.078 28.5-.044 57.001-.038 85.502 0 1.329-.264 1.225 1.243 1.24 1.07.01 2.14-.001 3.21-.003 1.831-.002 2.13.291 2.158 2.122H4.864Zm46.783-41.645h.008c0 12.771.01 25.543-.02 38.314-.002.942.193 1.244 1.205 1.236 6.515-.052 13.03-.027 19.546-.024 1.747 0 1.747.006 1.747-1.718l-.004-74.584c0-1.975-.556-2.539-2.521-2.541-6.288-.008-12.577.008-18.865-.039-.916-.007-1.114.282-1.113 1.141.025 12.738.017 25.477.017 38.215Zm-2.898.19h-.01v-6.516l.002-31.703c0-1.308-.004-1.3-1.3-1.3-5.933.007-11.865.005-17.797.012-1.947.002-2.428.461-2.429 2.375-.007 25.123-.003 50.246-.031 75.37-.001.898.256 1.12 1.127 1.116 6.516-.035 13.031-.034 19.547-.002.759.004.906-.238.905-.938-.02-12.805-.014-25.61-.014-38.414Zm37.078-23.728c.257-.232.164-.473.164-.68.005-7.619.004-15.237 0-22.856a3.5 3.5 0 0 0-.081-.767c-.613-2.707-2.436-4.098-5.418-4.098-13.616-.003-27.232.005-40.847.005-6.322 0-12.644-.014-18.965-.005-2.715.003-4.537 1.286-5.204 3.634-.205.718-.216 1.467-.216 2.211l-.004 42.014c-.002 14.231.002 28.462-.023 42.694 0 .735.195.934.922.92 2.333-.043 4.67-.062 7.001.012.955.031 1.172-.255 1.17-1.184-.03-16.857-.026-33.715-.027-50.572-.001-8.624.006-17.247-.008-25.87-.001-1.1.373-1.99 1.12-2.792.98-1.052 2.152-1.388 3.567-1.382 9.887.041 19.775.038 29.663.04 4.733.002 9.467.044 14.198-.049 2.167-.042 4.242 2.267 4.21 4.344-.065 4.44-.02 8.882-.01 13.323.002.437-.123.89.156 1.497 1.076-1.803 2.77-1.184 4.247-1.169 1.488.015 3.117-.57 4.386.73Zm-.008 24.24c-.992.993-1.978 2-2.986 2.984-.811.793-1.55.78-2.364-.017-.927-.907-1.84-1.827-2.763-2.736-.522-.515-.421-1.164-.24-1.723.175-.54.662-.755 1.303-.776.745-.025 1.101.431 1.528.86 1.352 1.357 1.397 1.399 2.693.017.941-1.005 1.686-1.17 2.927-.351v-3.622c-1.034.826-1.79.796-2.622.021-.541-.504-.967-1.463-1.6-1.444-.678.021-1.14.949-1.696 1.479-.731.695-1.686.76-2.298.126-.554-.574-.482-1.569.175-2.237.772-.786 1.555-1.56 2.33-2.342 1.136-1.143 1.77-1.133 2.934.03.898.897 1.809 1.782 2.802 2.76v-7.475c-.782.95-1.707.938-2.648.913a66.906 66.906 0 0 0-2.918 0c-1.196.02-2.417.144-3.165-1.213l-.181.163v17.84c.001 11.508.013 23.015-.021 34.522-.003.882.25 1.083 1.08 1.064 2.3-.053 4.603-.051 6.904-.003.785.016 1.026-.184 1.024-1.006-.03-12.382-.022-24.765-.029-37.147 0-.207.128-.45-.169-.688Zm-2.344-19.21c0-.776-.014-1.552.007-2.327.01-.417-.143-.578-.563-.567-.775.02-1.554.046-2.326-.01-.678-.049-.827.25-.795.847.038.71-.014 1.423.017 2.133.037.861-.388 1.974.163 2.517.548.54 1.663.096 2.522.183.727.074 1.083-.122.99-.936-.07-.606-.014-1.227-.014-1.84Z"/>
    <path fill="#000" d="M90.078 77.72c0-1.553-.007-3.107.003-4.661.005-.945.496-1.443 1.394-1.453.986-.011 1.505.466 1.509 1.44.01 3.172.011 6.345.003 9.517-.002.952-.568 1.487-1.5 1.472-.875-.014-1.4-.544-1.406-1.458-.01-1.619-.003-3.237-.003-4.856ZM9.722 5.907c-.062-.362.077-.711.3-1.046 1.19-1.786 2.706-3.213 4.616-4.205a2.087 2.087 0 0 1 1.018-.258c1.296.023 2.594.042 3.889-.006.614-.023.717.236.657.747-.09.77-.487 1.245-1.26 1.379-2.664.459-4.867 1.634-6.321 4.01-.304.498-.67.925-1.373.923-1.092-.004-1.534-.398-1.526-1.544Zm-1.386 4.939c.206-.656-.284-1.54.452-2.259.53-.516 1.147-.529 1.687-.318.472.184.862.623.814 1.293-.063.899-.017 1.805-.05 2.707-.034.894-.568 1.36-1.5 1.357-.992-.002-1.368-.372-1.4-1.4-.014-.418-.003-.837-.003-1.38Zm84.651 58.042c-.004.727.165 1.492-.59 2.014-.466.32-.982.466-1.448.197-.45-.26-.91-.606-.877-1.274.034-.707-.025-1.419.016-2.125.044-.756.494-1.113 1.253-1.165.853-.059 1.46.226 1.632 1.1.08.403.014.835.014 1.253ZM50.629 7.209c3.598 0 7.196-.003 10.794 0 1.416.002 2.376.95 2.382 2.344.004 1.167.004 2.334 0 3.5-.005 1.27-.977 2.307-2.233 2.31-7.293.011-14.586.012-21.88 0-1.206-.002-2.192-.946-2.265-2.215a35.607 35.607 0 0 1-.012-3.693c.063-1.348 1.075-2.246 2.42-2.247 3.597-.002 7.196 0 10.794 0Zm.005 5.248v.005c3.077 0 6.156-.052 9.23.03 1.023.026 1.065-.419 1.053-1.19-.01-.729.064-1.232-1.012-1.22-6.057.06-12.115.028-18.172.026-1.37 0-1.317.002-1.404 1.4-.05.806.23.973.976.964 3.109-.037 6.219-.015 9.329-.015Zm-31.33 50.87c0 1.036.015 2.071-.004 3.106-.018.973-.494 1.443-1.413 1.446-.898.004-1.467-.493-1.481-1.419a240.429 240.429 0 0 1-.013-6.406c.01-.88.747-1.535 1.572-1.498.808.036 1.325.625 1.339 1.568.016 1.067.003 2.136.003 3.203h-.003Zm.005-7.265c0 .29.009.58-.002.87-.032.871-.545 1.427-1.329 1.45-.879.027-1.504-.474-1.574-1.345a13.407 13.407 0 0 1-.007-2.03c.058-.79.705-1.304 1.517-1.288.857.017 1.338.488 1.385 1.376.018.322.003.645.003.967h.007Z"/>
  </g>
  <defs>
    <clipPath id="a">
      <path fill="#fff" d="M0 0h99.805v100H0z"/>
    </clipPath>
  </defs>
</svg>
