<svg xmlns="http://www.w3.org/2000/svg" width="101" height="100" fill="none" viewBox="0 0 101 100">
  <g clip-path="url(#a)">
    <path fill="#000" d="M100.195 50.096c-.56.97-1.084 1.952-2.184 2.47-1.615.76-3.218.465-4.701-.954-.47-.448-.917-.92-1.376-1.38-.428-.429-.859-.855-1.292-1.287-.33.267-.188.582-.189.846-.012 4.32-.06 8.642.012 12.962.032 1.94-1.386 4.002-3.951 4.06-2.17.05-3.858-1.78-3.86-4.037-.006-7.017-.008-14.034.008-21.052.002-.59-.146-1.014-.58-1.449-9.445-9.48-18.872-18.98-28.302-28.476-2.284-2.3-4.326-2.317-6.613-.033-9.56 9.55-19.114 19.105-28.683 28.646-.402.4-.565.798-.565 1.36.014 13.352-.011 26.704.025 40.056.012 4.34 2.49 7.339 6.459 8.152.503.103 1.032.102 1.55.103 2.924.007 5.848-.042 8.77.023.971.022 1.168-.294 1.165-1.205-.032-10.038.035-20.078-.054-30.115-.026-2.849 2.135-4.409 4.442-4.39 6.789.051 13.58.048 20.369.001 2.614-.018 4.52 1.747 4.494 4.44-.094 10.103-.025 20.207-.053 30.31-.002.799.227.967.984.956 3.02-.046 6.042.013 9.063-.032 3.733-.055 7.037-3.082 7.376-6.814.089-.978.102-1.994.665-2.898.943-1.514 2.704-2.25 4.44-1.776 1.687.461 2.794 1.966 2.83 3.743.152 7.537-5.497 14.212-13.157 15.482-.988.163-2.004.206-3.007.212-4.159.023-8.317-.035-12.475.026-2.705.04-4.555-1.832-4.53-4.52.094-10.037.025-20.076.057-30.114.003-.866-.22-1.09-1.077-1.08-3.8.047-7.602.043-11.402.003-.879-.009-1.223.162-1.22 1.154.04 10.136-.004 20.273.052 30.408.011 1.933-1.34 4.1-4.09 4.123-4.645.04-9.292.068-13.937-.006-7.477-.12-13.766-5.336-15.26-12.578-.201-.978-.272-1.974-.27-2.983.016-10.623.01-21.247.01-31.87v-1.767c-1.118 1.094-2.015 1.994-2.935 2.87-1.1 1.048-2.353 1.535-3.902 1.141C.813 52.195-.441 49.2.92 47.023c.239-.381.527-.744.845-1.062A42527.26 42527.26 0 0 1 42.254 5.576c1.944-1.936 4.312-2.999 7.078-3.249 3.76-.34 6.936.825 9.575 3.48C72.074 19.049 85.23 32.302 98.4 45.542c.763.767 1.433 1.573 1.796 2.604v1.95Z"/>
  </g>
  <defs>
    <clipPath id="a">
      <path fill="#fff" d="M0 0h100.195v100H0z"/>
    </clipPath>
  </defs>
</svg>
