<svg xmlns="http://www.w3.org/2000/svg" width="101" height="100" fill="none" viewBox="0 0 101 100">
  <g clip-path="url(#a)">
    <path fill="#000" d="M54.776.195c.291.304.668.363 1.066.4 6.269.577 12.107 2.556 17.635 5.497 1.717.913 2.283 2.71 1.472 4.294-.803 1.567-2.65 2.232-4.32 1.437-3.707-1.764-7.49-3.27-11.542-4.058-13.462-2.62-25.584.427-36.208 8.955-8.004 6.425-12.91 14.884-14.997 24.96-.91 4.398-1.135 8.836-.611 13.272 1.14 9.643 4.957 18.087 11.683 25.158.607.639 1.202 1.288 1.392 2.19.296 1.408-.317 2.778-1.554 3.49-1.258.725-2.845.532-3.96-.526-1.986-1.886-3.7-4.011-5.3-6.223-3.264-4.513-5.678-9.465-7.275-14.787C1.42 61.464.685 58.626.574 55.68c-.018-.462-.127-.9-.38-1.294v-8.382c.125-.569.28-1.133.368-1.708.22-1.436.326-2.894.623-4.313 1.24-5.931 3.445-11.476 6.719-16.592C13.989 13.88 22.327 7.163 32.893 3.218 36.613 1.83 40.456.922 44.423.582a2.558 2.558 0 0 0 1.19-.387h9.163Zm-4.371 99.596c-6.002.165-11.572-.854-16.979-2.74-2.294-.8-4.56-1.726-6.665-2.969-1.151-.68-1.767-1.775-1.671-3.094.1-1.38.944-2.32 2.246-2.803 1.031-.383 1.994-.076 2.9.406 2.564 1.366 5.264 2.385 8.051 3.177 6.412 1.82 12.889 2.196 19.47.994 7.927-1.448 14.934-4.782 20.98-10.087 4.88-4.281 8.599-9.416 11.21-15.386 2.355-5.385 3.424-11.023 3.583-16.842.112-4.079-.577-8.084-1.65-12.019-1.945-7.143-5.582-13.31-10.724-18.614-1.502-1.548-1.536-3.33-.135-4.761 1.29-1.318 3.222-1.26 4.685.207 5.924 5.946 9.989 12.987 12.353 21.03 1.971 6.709 2.422 13.55 1.49 20.44-1.532 11.33-6.452 21.008-14.633 29.02-6.618 6.482-14.453 10.757-23.453 12.857-3.705.865-7.477 1.38-11.058 1.184Z"/>
    <path fill="#000" d="M53.34 43.47v12.864c0 2.09-1.284 3.55-3.165 3.592-1.923.044-3.333-1.408-3.336-3.525-.014-8.447-.005-16.894-.005-25.34 0-.522.04-1.039.195-1.542.455-1.474 1.996-2.522 3.423-2.323 1.6.223 2.861 1.606 2.867 3.214.014 4.354.005 8.707.005 13.06h.017Zm0 26.67c-.014 1.711-1.476 3.132-3.203 3.114-1.77-.02-3.267-1.433-3.264-3.083.004-1.79 1.399-3.332 3.01-3.327 2.003.006 3.473 1.407 3.458 3.296Z"/>
  </g>
  <defs>
    <clipPath id="a">
      <path fill="#fff" d="M0 0h100.015v100H0z"/>
    </clipPath>
  </defs>
</svg>
