<svg xmlns="http://www.w3.org/2000/svg" width="100" height="100" fill="none" viewBox="0 0 100 100">
  <path fill="#000" d="M49.326 99.672c-1.582-.86-2.482-2.404-3.562-3.723-2.518-3.073-4.955-6.215-7.358-9.382a278.937 278.937 0 0 1-11.618-16.495c-3.416-5.251-6.527-10.675-9.212-16.333-1.89-3.98-3.501-8.088-4.257-12.437-.462-2.655-.364-5.38-.073-8.087.29-2.694.84-5.31 1.758-7.863.662-1.837 2.382-2.477 4.196-1.987 1.538.415 2.507 2.392 1.944 3.93-1.4 3.824-1.89 7.768-1.622 11.798.135 2.033.782 3.98 1.444 5.907 1.778 5.17 4.315 9.969 7.059 14.68a191.92 191.92 0 0 0 8.244 12.913c2.87 4.131 5.783 8.232 8.924 12.167 1.554 1.947 3.06 3.932 4.58 5.906.555.721.88.75 1.393.088 2.228-2.876 4.493-5.724 6.676-8.633 4.348-5.797 8.513-11.719 12.364-17.862 2.678-4.273 5.182-8.636 7.36-13.18 1.779-3.712 3.316-7.543 3.865-11.636.248-1.853.128-3.785-.096-5.695a30.209 30.209 0 0 0-3.547-11.129c-2.707-4.937-6.483-8.869-11.328-11.786A31.527 31.527 0 0 0 56.341 6.92c-3.174-.636-6.408-.626-9.646-.268-4.24.469-8.145 1.888-11.839 3.929-3.163 1.748-5.669 4.3-8.134 6.885a2.712 2.712 0 0 1-1.957.874c-1.45.042-2.544-.579-3.177-1.88-.692-1.422-.2-2.68.755-3.773 3.263-3.737 7.117-6.733 11.579-8.91 3.402-1.66 6.984-2.741 10.743-3.347 3.095-.5 6.199-.507 9.274-.304 4.118.273 8.081 1.406 11.873 3.085 3.112 1.379 5.969 3.174 8.6 5.304 3.314 2.684 6.015 5.92 8.231 9.564 2.037 3.348 3.435 6.945 4.392 10.736.907 3.591 1.093 7.248.843 10.9-.216 3.145-1.257 6.146-2.354 9.095-1.22 3.28-2.755 6.42-4.38 9.515-1.877 3.571-3.933 7.038-6.098 10.442-2.452 3.854-4.971 7.667-7.664 11.354-2.83 3.874-5.657 7.754-8.696 11.473-1.823 2.23-3.602 4.498-5.403 6.746-.445.556-1.035.941-1.618 1.333h-2.34Z"/>
</svg>
