<svg xmlns="http://www.w3.org/2000/svg" width="99" height="100" fill="none" viewBox="0 0 99 100">
  <path fill="#000" d="M46.035 67.302c0 4.29-.004 8.58.002 12.87.002 1.282-1.245 2.57-2.545 2.576-2.46.01-4.918.004-7.378.004-6.043 0-12.087 0-18.131-.003-1.061 0-2.053-.842-2.505-1.802-.354-.75-.334-1.481-.334-2.241-.004-7.851-.006-15.702-.003-23.553 0-1.442.667-2.481 1.965-3.114.267-.13.55-.16.847-.16 8.524.004 17.048.001 25.572.003 1.297 0 2.509 1.209 2.51 2.488v12.932ZM30.91 76.633h8.564c.804 0 .808-.003.808-.828v-16.99c0-.543-.271-.814-.812-.814-5.71 0-11.419.002-17.128.003-.906 0-.95.041-.95.95-.002 5.58-.003 11.16-.002 16.74 0 .908.028.937.956.938 2.855.003 5.71.001 8.564.001Zm-.215-60.253h12.693c1.497 0 2.644 1.153 2.644 2.654.001 5.519-.028 11.038.026 16.556.012 1.163-.558 1.846-1.403 2.38-1.679 1.057-3.458.14-4.278-1.395-.137-.257-.092-.53-.092-.796-.002-4.186-.014-8.372.015-12.558.005-.62-.18-.754-.77-.751-5.17.025-10.338.02-15.507.018-.562 0-1.124-.032-1.685-.069-.775-.051-.944.083-.945.84-.002 5.707.007 11.413-.014 17.12-.002.57.233.64.707.64 3.834.01 7.669.037 11.503.059.932.005 1.807.243 2.567.77.63.436 1.07 1.027 1 1.87-.023.269-.046.55.004.81.149.764-.224 1.3-.723 1.79-.558.545-1.157.945-2.008.941-5.46-.02-10.922-.007-16.382-.007-1.08 0-2.082-.816-2.561-1.802-.342-.703-.345-1.39-.345-2.11 0-7.956 0-15.912.005-23.868 0-1.583 1.376-3.135 3.043-3.112 4.168.057 8.337.019 12.506.02Zm36.981 35.502h12.635c1.099 0 1.866.677 2.432 1.605.497.814.443 1.614.443 2.45.007 7.916.028 15.833-.023 23.75-.007 1.118-.51 2.14-1.636 2.712-.491.25-.97.362-1.523.36a3364.34 3364.34 0 0 0-16.137-.005c-1.051.002-1.79-.523-2.32-1.349-.911-1.426-.486-3.508.96-4.265.52-.272 1.134-.523 1.81-.519 3.941.027 7.882.002 11.822.021.582.003.804-.148.802-.769-.018-5.729-.013-11.458.004-17.187.002-.516-.167-.69-.677-.69-5.817.01-11.633.012-17.45-.001-.657-.002-.785.305-.783.885.017 4.083-.021 8.166.027 12.25.015 1.265-.666 2.003-1.642 2.474-1.365.658-2.739.25-3.643-.87-.392-.487-.49-.94-.488-1.51.01-5.582.006-11.166.006-16.749 0-1.38 1.215-2.593 2.622-2.594 4.253-.004 8.506-.001 12.76-.001v.002Z"/>
  <path fill="#000" d="M95.448 82.59c0 3.646-.024 7.291.02 10.936.009.75-.392 1.234-.818 1.67-.468.48-1.09.7-1.841.697-7.17-.033-14.341-.02-21.512-.021-1.254 0-2.458-1.238-2.5-2.486-.032-.96.016-1.866.821-2.539.463-.386.903-.734 1.598-.73 5.899.029 11.798.008 17.697.03.608.002.805-.122.801-.782-.031-5.894.009-11.79-.047-17.683-.011-1.1 1.433-2.567 2.486-2.444.79.091 1.629-.152 2.31.49.563.53 1.008 1.058 1 1.927-.037 3.645-.016 7.29-.015 10.936ZM2.88 16.47c0-3.664.017-7.328-.017-10.992-.006-.582.256-1.016.58-1.357.52-.548 1.143-.895 2.01-.89 7.23.038 14.46.021 21.69.018.89 0 1.377.53 1.93 1.169.707.816.379 1.685.431 2.528.032.514-.442.902-.763 1.255-.468.513-1.063.817-1.848.813-5.75-.03-11.501-.017-17.252-.016-1.015 0-1.01.003-1.01 1.037v17.49c0 1.083-1.281 2.33-2.375 2.355-.953.022-1.898.081-2.61-.742-.391-.454-.77-.897-.77-1.55.005-3.705.003-7.411.004-11.117Zm-.002 66.074v-11.12c0-.927 1.163-2.135 2.103-2.168.479-.017.959-.008 1.438-.001.949.012 2.21 1.28 2.21 2.227.003 5.935.002 11.87.002 17.804 0 .842.003.845.84.846 5.918.001 11.836.008 17.755-.005.797-.002 1.284.487 1.758.986.765.805.626 1.85.492 2.793-.069.484-.44 1.023-.908 1.367-.535.393-1.09.624-1.807.621-7.127-.03-14.254-.019-21.381-.02-.985 0-1.618-.476-2.18-1.292-.329-.476-.313-.892-.314-1.355-.01-3.561-.006-7.122-.006-10.683h-.002Zm92.568-66.048c0 3.604-.023 7.208.017 10.81.01.874-.388 1.466-.96 2.005-1.052.992-3.781.823-4.477-.812-.183-.432-.334-.814-.333-1.278.006-5.79.005-11.581.004-17.372 0-.843-.002-.849-.856-.849l-17.636-.003c-1.132 0-2.369-1.26-2.403-2.393-.03-.988-.03-1.946.841-2.64.49-.391.95-.729 1.664-.726 7.296.03 14.592.022 21.888.013.817-.001 1.269.507 1.78 1.033.558.573.47 1.233.47 1.901.003 3.437.002 6.874 0 10.311ZM83.189 39.842c0 1.478-.022 2.957.01 4.435.014.64-.052 1.213-.506 1.708-.637.696-1.292 1.285-2.34 1.275-2.918-.027-5.836-.042-8.753.012-.939.017-1.644-.345-2.27-.935-1.139-1.071-1.09-3.06.037-4.148.894-.864 1.987-1.132 3.17-1.148a171.96 171.96 0 0 1 4.126.003c.477.005.675-.125.662-.665-.04-1.707.017-3.416-.028-5.123-.017-.68.235-1.17.66-1.65.786-.884 1.749-1.321 2.916-1.093.754.147 1.28.718 1.799 1.257.446.464.549 1.002.53 1.636-.044 1.477-.014 2.957-.013 4.436Zm-30.893-16.18v-4.75c-.001-1.24 1.175-2.514 2.422-2.524 3.21-.024 6.422-.058 9.63.019 1.09.026 1.834.764 2.317 1.775.914 1.911-.867 4.125-2.768 4.208-1.645.071-3.285.157-4.93.018-.806-.068-.925.057-.925.88 0 1.708-.023 3.417.01 5.124.011.557-.168.987-.49 1.415-.839 1.114-1.983 1.364-3.262 1.135-1.022-.182-2.004-1.46-2.004-2.489v-4.811Zm9.951 16.59c-1.824.228-3.435-1.596-3.053-3.697.135-.747.698-1.345 1.232-1.882 1.025-1.028 2.102-2.004 3.134-3.024.948-.937 1.862-1.908 2.8-2.855 1.35-1.364 2.709-2.72 4.063-4.08.564-.566 1.177-1.09 1.907-1.406 1.15-.498 3.173.446 3.585 1.643.628 1.822.259 2.662-1.005 3.935a1504.36 1504.36 0 0 1-5.198 5.219c-1.194 1.193-2.402 2.373-3.6 3.562-.514.51-1.012 1.036-1.53 1.541-.636.622-1.423 1.195-2.335 1.044ZM30.74 28.751c.748 0 1.498-.022 2.246.005 1.69.06 2.956 1.52 2.928 3.057-.022 1.232-.717 2.271-1.965 2.79-.466.193-.931.29-1.443.278-1.227-.03-2.455.01-3.682-.016-.952-.02-1.787-.29-2.466-1.05-1.236-1.384-.912-3.643.532-4.558.45-.285.97-.58 1.604-.523.743.067 1.497.015 2.245.017Zm37.051 35.881h2.31c1.552-.002 2.578 1.022 2.578 2.571 0 .761.095 1.53-.484 2.176-.48.536-.986.992-1.751.994-1.832.006-3.665-.03-5.496.012-1.028.025-2.317-1.37-2.268-2.247.04-.71-.154-1.432.256-2.126.544-.92 1.281-1.404 2.357-1.382.833.016 1.666.003 2.498.002ZM30.65 70.378h-2.502c-1.025-.002-2.108-.717-2.482-1.637-.568-1.401.171-3.313 1.54-3.974.227-.11.468-.135.723-.134 1.855.007 3.71 0 5.564 0 .896 0 2.157 1.236 2.154 2.135-.003.94.197 1.924-.593 2.703-.47.464-.923.92-1.654.91-.917-.011-1.834-.002-2.75-.003Z"/>
</svg>
