<svg xmlns="http://www.w3.org/2000/svg" width="100" height="100" fill="none" viewBox="0 0 100 100">
  <path fill="#000" d="M50.294 45.832c10.947 0 21.893-.002 32.84.002 2.054.001 3.763 1.005 4.334 2.683.96 2.822-.567 5.577-4 5.855-.226.018-.455.003-.682.003-21.731 0-43.462.002-65.194-.004-1.907 0-3.513-.625-4.368-2.475-1.368-2.96.753-6.064 4.132-6.065 10.98-.005 21.959-.002 32.938-.002v.003ZM31.362 91.804c-2.566 0-5.132.002-7.698 0-6.214-.006-11.187-3.762-12.68-9.866a8.273 8.273 0 0 1-.26-2.005c.022-4.417.009-8.835.01-13.252.001-2.005 1.492-3.857 3.288-4.096 2.412-.32 4.406.808 5.01 2.859.08.272.058.577.058.867.006 3.995-.03 7.991.025 11.986.024 1.703.342 3.348 1.99 4.356a3.89 3.89 0 0 0 2.093.596c5.49-.01 10.98.016 16.469-.013 2.163-.011 4.658 1.597 4.41 4.743-.163 2.08-2.029 3.823-4.432 3.824h-8.283Zm37.818-.001c-2.826 0-5.652.034-8.477-.013-1.664-.029-3.025-.77-3.754-2.295-1.364-2.857.326-6.203 3.823-6.236 5.553-.053 11.107-.01 16.66-.016 2.054-.003 3.677-1.506 3.873-3.567.416-4.37.096-8.748.165-13.122.018-1.192.412-2.148 1.256-2.93 1.394-1.292 3.059-1.397 4.699-.723 1.586.65 2.42 1.997 2.43 3.735.023 4.32.008 8.639.006 12.958-.002 4.963-3.549 9.864-8.26 11.432a15.022 15.022 0 0 1-4.92.786c-2.5-.022-5.001-.006-7.502-.006v-.003ZM31.386 8.392c2.824 0 5.648-.032 8.472.012 1.704.027 3.09.756 3.804 2.356 1.325 2.973-.42 6.115-3.798 6.167-5.484.083-10.972.078-16.456 0-2.098-.03-3.926 1.607-4.139 3.633-.345 3.302-.065 6.603-.168 9.902-.033 1.037-.137 2.096.017 3.111.309 2.037-2.133 4.128-3.816 4.063-2.82-.107-4.568-1.577-4.57-4.097-.002-4.382-.073-8.766.022-13.146.127-5.805 4.32-10.623 10.25-11.796 1.719-.34 3.477-.2 5.22-.206 1.72-.005 3.441-.001 5.162.001Zm37.829.001c2.599 0 5.198-.003 7.796.001 6.165.01 11.184 3.884 12.578 9.847.174.744.29 1.505.285 2.29-.026 4.32-.013 8.64-.014 12.96 0 1.98-1.52 3.887-3.277 4.118-2.496.328-4.48-.863-5.043-3.046-.071-.276-.05-.579-.05-.87-.005-3.93.018-7.86-.021-11.79-.012-1.185-.133-2.369-.928-3.377-.793-1.005-1.78-1.567-3.06-1.569-5.554-.007-11.108-.004-16.663-.008-1.918-.001-3.593-1.196-4.2-2.981-.549-1.616.114-3.699 1.583-4.771.74-.54 1.61-.802 2.536-.804 2.826-.005 5.652-.002 8.478 0Z"/>
</svg>
