<svg xmlns="http://www.w3.org/2000/svg" width="100" height="100" fill="none" viewBox="0 0 100 100">
  <g clip-path="url(#a)">
    <path fill="#000" d="M65.175 100h-3.307c-1.224-.46-2.482-.827-3.589-1.574-1.914-1.293-2.992-3.165-3.805-5.25-.513-1.317-1.485-1.98-2.921-1.948-.971.02-1.943.003-2.914.004-1.757.003-2.513.5-3.184 2.127-.595 1.44-1.283 2.81-2.392 3.95-1.375 1.414-3.122 2.099-4.93 2.691h-3.308c-2.11-.84-4.216-1.686-6.328-2.519-1.758-.693-3.451-1.496-4.662-3.015-2.318-2.91-2.902-6.105-1.495-9.605.407-1.014.915-2.003.629-3.165-.296-1.203-3.687-4.35-4.91-4.537-.922-.142-1.696.288-2.492.625-4.866 2.06-10.07.092-12.239-4.726-1.134-2.522-2.095-5.123-3.134-7.688v-3.502c.626-1.625 1.234-3.245 2.488-4.54 1.229-1.27 2.742-2.028 4.348-2.66 1.325-.522 1.955-1.516 1.933-2.935-.007-.454-.06-.916.007-1.36.42-2.766-.69-4.375-3.375-5.33-2.635-.937-4.256-3.064-5.047-5.777-.074-.255-.02-.601-.354-.744v-3.697c.965-2.353 1.973-4.69 2.885-7.064 1.41-3.67 5.092-6.09 8.92-5.97 1.63.052 3.083.626 4.548 1.207 1.303.518 2.392.24 3.352-.74.748-.764 1.513-1.512 2.268-2.27.958-.963 1.06-2.09.62-3.314-.142-.394-.314-.778-.466-1.17-1.87-4.801-.026-9.669 4.614-11.896A65.305 65.305 0 0 1 33.38.948c3.624-1.284 6.862-.484 9.665 2.125 1.195 1.113 1.868 2.553 2.446 4.032.571 1.46 1.6 2.109 3.142 2.06a65.887 65.887 0 0 1 3.015-.003c1.317.019 2.207-.618 2.751-1.775.316-.671.565-1.376.892-2.041 1.753-3.56 6.109-5.723 9.91-4.789 3.08.757 6.01 2.014 8.761 3.553 2.991 1.673 4.365 4.465 4.443 7.89.035 1.524-.465 2.914-1.04 4.287-.317.756-.696 1.597-.311 2.332 1.046 2.002 2.533 3.648 4.654 4.548.89.378 1.76-.142 2.592-.5 4.977-2.139 10.154-.199 12.413 4.718a75.062 75.062 0 0 1 2.569 6.266c1.159 3.276.537 6.307-1.627 9.006-1.19 1.485-2.813 2.357-4.564 3.011-1.41.527-2.105 1.532-2.055 3.046.013.42.057.85-.005 1.262-.428 2.803.697 4.376 3.418 5.398 3.945 1.482 6.134 6.03 5.16 10.088-.742 3.087-2.01 6.014-3.566 8.757-1.651 2.91-4.384 4.257-7.732 4.372-1.736.06-3.286-.56-4.841-1.193-1.279-.521-2.392-.295-3.355.706-.675.7-1.371 1.379-2.058 2.067-1.201 1.203-1.41 2.215-.752 3.772.514 1.218 1.015 2.448 1.08 3.781.21 4.31-1.977 7.712-5.976 9.377-2.399.999-4.78 2.038-7.234 2.899ZM29.369 17.852c.107 2.52-1.172 5.002-2.419 6.253-1.03 1.033-2.03 2.097-3.1 3.087-1.68 1.552-3.686 2.313-5.982 2.379-1.733.05-3.286-.532-4.843-1.174-1.627-.672-3.228-.116-3.92 1.423a110.629 110.629 0 0 0-2.421 5.81c-.611 1.595.097 3.104 1.677 3.816.53.239 1.084.427 1.607.679 2.632 1.269 4.304 3.303 5.044 6.154.482 1.86.283 3.74.256 5.592-.056 3.972-1.945 6.881-5.62 8.542-.5.226-1.019.415-1.512.655-1.29.63-1.948 1.919-1.528 3.287.693 2.252 1.686 4.394 2.657 6.537.337.743 1.043 1.106 1.831 1.314.991.261 1.83-.16 2.699-.51 4.18-1.686 7.707-.933 10.859 2.297.679.696 1.383 1.368 2.063 2.063 1.755 1.792 2.636 3.939 2.66 6.456.016 1.556-.486 2.968-1.059 4.372-.877 2.151-.26 3.607 1.891 4.492 1.314.541 2.658 1.019 3.93 1.643 3.13 1.537 4.638.341 5.61-2.304 1.073-2.918 3.277-4.724 6.313-5.518 1.92-.503 3.872-.297 5.791-.252 3.77.087 6.57 1.9 8.24 5.336.282.58.486 1.197.773 1.774.663 1.332 1.985 2.021 3.376 1.523 2.186-.783 4.329-1.699 6.45-2.648.756-.338 1.17-1.076 1.325-1.93.151-.838-.078-1.583-.405-2.339-1.845-4.26-1.121-7.904 2.179-11.13.719-.701 1.402-1.44 2.132-2.13 1.763-1.668 3.853-2.521 6.297-2.577 1.74-.04 3.276.615 4.846 1.2 1.738.647 3.244 0 3.964-1.699a271.146 271.146 0 0 0 2.117-5.1c.848-2.119.242-3.532-1.854-4.425-.535-.228-1.084-.435-1.593-.711-2.875-1.559-4.515-3.944-4.899-7.219-.156-1.332 0-2.652-.037-3.979-.107-3.872 1.549-6.788 5.003-8.615.684-.362 1.427-.61 2.118-.96 1.366-.694 2.015-2.052 1.49-3.477-.783-2.119-1.68-4.198-2.59-6.266-.359-.814-1.11-1.203-1.984-1.396-1.073-.235-1.964.26-2.88.635-1.977.806-4.005 1.091-6.046.405-3.933-1.321-6.55-4.214-8.45-7.713-1.383-2.543-.932-5.232.184-7.842.997-2.33.392-3.704-1.943-4.688-1.25-.527-2.544-.962-3.754-1.566-3.153-1.573-4.672-.407-5.676 2.305-1.078 2.909-3.288 4.72-6.334 5.49-1.92.485-3.874.303-5.793.25-3.947-.11-6.76-2.094-8.375-5.722-.158-.353-.318-.709-.44-1.076-.467-1.412-2.246-2.503-4.035-1.715-1.654.73-3.34 1.39-5.016 2.069-2.194.887-2.802 2.339-1.9 4.556.559 1.376 1.097 2.76 1.026 4.287Z"/>
    <path fill="#000" d="M74.257 50.267c-.171 13.538-10.897 24.213-24.33 24.16-13.695-.053-24.312-11.037-24.16-24.508.154-13.579 11.04-24.043 24.4-23.946 13.728.1 24.034 11.169 24.09 24.294ZM50.001 32.28c-9.916-.044-17.951 8.14-17.921 17.958.03 9.916 8.15 17.818 17.78 17.883 10.083.068 18.01-8.198 18.064-17.806.057-10.015-8.127-18.074-17.923-18.035Z"/>
  </g>
  <defs>
    <clipPath id="a">
      <path fill="#fff" d="M0 0h99.856v100H0z"/>
    </clipPath>
  </defs>
</svg>
