<svg xmlns="http://www.w3.org/2000/svg" width="131" height="125" fill="none" viewBox="0 0 131 125">
  <path fill="white" d="M7.852 99.595c-.45-2.87.255-5.04 4.256-5.892 4.57-.972 4.538-5.285 4.605-8.911.168-9.138-.1-18.287.182-27.42.292-9.491 5.402-15.691 13.728-17.04 2.235-.362 5.631-1.684 6.026 2.055.333 3.156 2.308 7.608-3.476 8.74-4.397.86-4.984 4.433-5.017 8.073-.08 8.808.04 17.619-.075 26.426-.119 9.084-3.438 15.972-12.714 19.285-6.021 2.15-7.511 1.499-7.515-5.316Zm86.189-46.902c0 10.47-.181 20.944.083 31.407.117 4.615-2.205 5.016-5.852 5.038-3.77.024-5.789-.715-5.752-5.175.172-21.27.173-42.543-.024-63.813-.04-4.318 2.209-4.425 5.295-4.32 3.12.107 6.425-.688 6.314 4.46-.23 10.796-.07 21.601-.064 32.403Zm28.836 18.457c0 4.65-.09 9.303.027 13.95.1 3.989-2.471 4.073-5.317 3.96-2.884-.114-6.324.792-6.299-4.012.04-7.972.064-15.945-.077-23.915-.144-8.05-1.064-9.285-8.871-10.227-4.878-.59-3.38-3.943-3.65-6.653-.314-3.137 1.087-4.393 4.272-4.59 11.503-.709 19.225 6.117 19.859 18.036.238 4.472.039 8.966.039 13.45h.017Zm-73.768.866c.062-5.971-.308-11.96.803-17.887 1.52-8.108 7.084-13.516 14.627-14.03 1.915-.13 4.57-.593 4.55 2.322-.018 2.836 2.182 7.007-2.07 8.21-5.21 1.474-6.137 4.85-6.105 9.37.057 8.138-.154 16.28.061 24.412.117 4.396-2.293 4.772-5.683 4.688-3.279-.081-6.497.323-6.219-4.632.233-4.139.048-8.301.036-12.453Z"/>
  <path fill="white" d="M7.852 99.595c-.45-2.87.255-5.04 4.256-5.892 4.57-.972 4.538-5.285 4.605-8.911.168-9.138-.1-18.287.182-27.42.292-9.491 5.402-15.691 13.728-17.04 2.235-.362 5.631-1.684 6.026 2.055.333 3.156 2.308 7.608-3.476 8.74-4.397.86-4.984 4.433-5.017 8.073-.08 8.808.04 17.619-.075 26.426-.119 9.084-3.438 15.972-12.714 19.285-6.021 2.15-7.511 1.499-7.515-5.316Zm86.189-46.902c0 10.47-.181 20.944.083 31.407.117 4.615-2.205 5.016-5.852 5.038-3.77.024-5.789-.715-5.752-5.175.172-21.27.173-42.543-.024-63.813-.04-4.318 2.209-4.425 5.295-4.32 3.12.107 6.425-.688 6.314 4.46-.23 10.796-.07 21.601-.064 32.403Zm28.836 18.457c0 4.65-.09 9.303.027 13.95.1 3.989-2.471 4.073-5.317 3.96-2.884-.114-6.324.792-6.299-4.012.04-7.972.064-15.945-.077-23.915-.144-8.05-1.064-9.285-8.871-10.227-4.878-.59-3.38-3.943-3.65-6.653-.314-3.137 1.087-4.393 4.272-4.59 11.503-.709 19.225 6.117 19.859 18.036.238 4.472.039 8.966.039 13.45h.017Zm-73.768.866c.062-5.971-.308-11.96.803-17.887 1.52-8.108 7.084-13.516 14.627-14.03 1.915-.13 4.57-.593 4.55 2.322-.018 2.836 2.182 7.007-2.07 8.21-5.21 1.474-6.137 4.85-6.105 9.37.057 8.138-.154 16.28.061 24.412.117 4.396-2.293 4.772-5.683 4.688-3.279-.081-6.497.323-6.219-4.632.233-4.139.048-8.301.036-12.453Z"/>
</svg>
