<svg xmlns="http://www.w3.org/2000/svg" width="101" height="100" fill="none" viewBox="0 0 101 100">
  <g clip-path="url(#a)">
    <path fill="#000" d="M100.195 48.733c-1.495 1.781-3.46 3.015-5.25 4.443-9.593 7.648-19.215 15.26-28.827 22.882-7.349 5.828-14.701 11.65-22.044 17.485-.696.554-1.459.783-2.334.782-11.305-.007-22.61-.017-33.915.006-1.828.003-2.809-.818-2.786-2.72.077-6.658.011-13.318.052-19.977.006-.891-.248-1.09-1.095-1.041-2.805.16-3.771-.081-3.62-3.54.085-1.945 0-3.897 0-5.846 0-1.558.772-2.332 2.315-2.332 11.858.002 23.715-.003 35.572.024.843.002 1.156-.14 1.142-1.092-.063-4.157-.045-8.316-.01-12.474.006-.72-.173-.952-.913-.938-1.096.022-2.205.152-3.293-.108-1.117-.267-1.655-.924-1.658-2.048-.007-2.502-.007-5.003 0-7.504.004-1.255.733-2.04 2-2.17.258-.026.52-.006.78-.006 11.694 0 23.39-.012 35.084.028.977.003 1.153-.281 1.142-1.187-.05-4.125-.038-8.251 0-12.377.006-.72-.162-.982-.91-.925-.871.066-1.753.026-2.63.01-1.556-.029-2.322-.802-2.325-2.331-.004-2.34.085-4.682-.033-7.016-.086-1.686 1.038-2.51 2.589-2.507 6.075.014 12.15.009 18.224.01 3.281.002 6.563.028 9.843-.01 1.217-.014 2.222.276 2.9 1.348v41.13ZM25.48 90.258v.003c5.035 0 10.07-.02 15.103.02.873.007 1.53-.25 2.196-.782a9594.699 9594.699 0 0 1 21.953-17.443A26322.791 26322.791 0 0 1 95.725 47.52c.426-.337.587-.679.585-1.22-.019-6.56-.025-13.122.005-19.683.003-.737-.195-.927-.922-.913-2.37.047-4.742.037-7.112.008-1.138-.014-1.933-.887-1.924-2.006.01-1.076.768-1.853 1.912-1.874 1.753-.033 3.508.003 5.26-.035.897-.02 2.054.393 2.618-.194.513-.534.066-1.676.163-2.54.088-.785-.196-.967-.96-.963-5.943.03-11.887.03-17.83-.007-.858-.006-1.135.18-1.13 1.099.04 7.633.02 15.265.02 22.898 0 1.347-.463 1.949-1.771 2.242-.342.077-.705.084-1.059.084-9.711-.002-19.423.006-29.134-.04-1.007-.005-1.2.297-1.196 1.248.042 7.6.025 15.2.023 22.801 0 1.365-.673 2.08-2.038 2.177-.29.02-.584.015-.876.015H10.445c-.99 0-1.484.48-1.479 1.44.002.455.043.914-.01 1.363-.079.69.184.879.864.867 2.306-.04 4.612-.024 6.918-.011 1.18.006 2.061.705 2.167 1.676.136 1.233-.607 2.18-1.862 2.208-2.37.053-4.741.056-7.111.021-.744-.01-1.002.172-.991.965.047 3.377.054 6.756.005 10.133-.012.843.264 1.001 1.041.996 5.164-.033 10.329-.017 15.493-.017Zm-3.63-23.587v.004c4.836 0 9.672.013 14.508-.011.988-.006 2.344.46 2.867-.209.493-.63.104-1.926.163-2.926.037-.632-.225-.741-.795-.74-10.515.024-21.03.026-31.546.04-.872.001-1.975-.34-2.556.172-.598.527-.119 1.65-.203 2.507-.003.032.004.066-.002.097-.163.832.116 1.097 1.013 1.09 5.517-.047 11.034-.024 16.551-.024ZM54.973 40.36c4.97 0 9.94.004 14.91-.003.837-.001 1.954.272 2.44-.154.57-.501.094-1.653.202-2.511.104-.832-.14-1.097-1.04-1.094-10.459.036-20.918.018-31.377.031-.864.001-1.996-.386-2.522.173-.518.55-.054 1.68-.175 2.538-.132.941.315 1.038 1.093 1.034 5.49-.026 10.98-.014 16.469-.014Zm28.45-30.039c-3.343 0-6.686-.008-10.029.006-.902.004-2.085-.381-2.633.148-.602.58-.092 1.784-.205 2.707-.093.755.201.899.918.896 7.335-.029 14.67-.015 22.005-.02.902 0 2.114.312 2.626-.145.598-.533.094-1.774.203-2.697.087-.743-.182-.919-.91-.912-3.991.038-7.983.018-11.975.017Z"/>
    <path fill="#000" d="M84.617 23.798c-.008 1.11-.861 1.935-1.985 1.921-1.105-.014-1.94-.878-1.926-1.995.014-1.133.829-1.904 2-1.892 1.15.012 1.92.804 1.911 1.966ZM22.558 78.17c-1.136-.01-1.94-.835-1.924-1.97.016-1.109.888-1.947 2-1.922a1.95 1.95 0 0 1 1.926 2.006c-.015 1.124-.836 1.898-2.002 1.886Z"/>
  </g>
  <defs>
    <clipPath id="a">
      <path fill="#fff" d="M0 0h100.195v100H0z"/>
    </clipPath>
  </defs>
</svg>
