<svg xmlns="http://www.w3.org/2000/svg" width="181" height="100" fill="none" viewBox="0 0 181 100">
  <path fill="#000" d="M103.331 43.76c1.945.821 3.678 1.735 5.303 2.804 1.958 1.289 3.75 2.812 5.419 4.464 2.389 2.364 4.305 5.095 5.839 8.062 1.4 2.706 2.219 5.636 2.913 8.606.789 3.375.372 6.787.481 10.181.114 3.504-1.365 6.349-3.848 8.676-2.037 1.91-4.529 2.841-7.34 2.842-14.27.003-28.539.032-42.808-.023-2.805-.01-5.218-1.13-7.291-3.13-.932-.899-1.624-1.899-2.298-2.944-.886-1.373-1.266-2.955-1.281-4.542-.03-3.068-.278-6.155.21-9.205.374-2.345.794-4.663 1.64-6.932 1.237-3.315 2.965-6.3 5.07-9.1 1.644-2.188 3.653-3.999 5.846-5.636 2.184-1.63 4.532-2.952 7.086-4.13-4.099-2.928-6.995-6.762-8.522-11.427-1.53-4.68-1.482-9.55.287-14.16C73.64 8.78 82.422 3.012 92.837 3.855c10.155.821 17.945 8.495 19.54 17.19 1.969 10.734-2.911 18.56-9.046 22.714ZM90.778 83.074c6.46 0 12.918-.003 19.378-.008 1.195 0 2.479.11 3.534-.412 2.128-1.053 3.295-2.87 3.304-5.3.006-1.942-.026-3.878-.195-5.824-.325-3.734-1.414-7.201-3.178-10.467-1.092-2.021-2.529-3.817-4.121-5.462-1.581-1.635-3.335-3.117-5.3-4.248a25.5 25.5 0 0 0-5.209-2.274c-1.86-.574-3.687-1.045-5.662-1.191-1.922-.142-3.805.112-5.7.055-2.557-.078-4.78 1.066-7.065 1.878-1.72.612-3.331 1.603-4.835 2.71-1.554 1.141-3.015 2.395-4.291 3.823-1.328 1.486-2.372 3.186-3.435 4.883-1.127 1.801-1.84 3.735-2.376 5.712-.935 3.45-1.033 7.025-.912 10.581.077 2.28 1.02 4.173 3.261 5.112 1.005.422 2.114.43 3.199.43 6.534.004 13.068.002 19.603.002Zm15.609-57.46c.184-8.2-7.17-15.326-14.914-15.525-9.302-.238-16.426 7.233-16.26 15.726.165 8.491 6.706 15.38 15.534 15.431 8.516.049 15.74-6.993 15.64-15.632Z"/>
  <path fill="#000" d="M23.793 55.644c-10.983-9.059-9.218-22.039-3.438-28.622 9.319-10.613 21.714-7.885 28.02-2.618 4.85 4.049 7.3 9.376 7.099 15.73-.2 6.317-2.881 11.476-7.917 15.527.692.442 1.28.895 1.93 1.217 2.218 1.098 4.045 2.706 5.872 4.326.461.408.187.621-.091.888-1.284 1.232-2.58 2.451-3.846 3.7-.372.368-.508.019-.7-.151-.895-.788-1.697-1.713-2.686-2.354-1.575-1.02-3.236-1.913-5.051-2.488-3.84-1.216-7.672-1.547-11.7-.779-3.1.59-5.832 1.814-8.324 3.569-2.48 1.745-4.461 4.018-6.105 6.614-2.053 3.243-2.878 6.82-3.073 10.542-.18 3.424 2.27 5.747 5.744 5.749 12.17.007 24.34.038 36.51-.017 2.988-.013 4.195 2.503 3.102 4.768-.563 1.166-1.66 1.525-2.85 1.529-7.061.02-14.122.01-21.184.01-5.146 0-10.292-.042-15.437.017-3.692.043-6.824-1.232-9.296-3.898-.817-.88-1.41-2.034-2.006-3.153-1.36-2.559-1.492-5.192-.862-7.829.619-2.584 1.107-5.202 2.259-7.684 1.07-2.31 2.31-4.493 3.814-6.488a19.533 19.533 0 0 1 3.689-3.737c1.06-.814 2.109-1.646 3.227-2.377 1.05-.685 2.146-1.299 3.3-1.991ZM49.15 39.696c-.15-7.798-6.12-13.54-13.507-13.51-7.623.032-13.501 5.95-13.498 13.472.004 7.305 5.6 13.473 13.576 13.453 7.284-.018 13.39-5.762 13.43-13.415Zm107.692 16.696c3.454 1.534 6.333 3.675 8.915 6.236 1.949 1.931 3.568 4.169 4.716 6.596 1.912 4.048 3.176 8.333 3.08 12.908-.055 2.644-1.082 4.87-2.55 7.024-1.28 1.88-3.111 2.872-5.039 3.8a5.424 5.424 0 0 1-2.39.521 9302.476 9302.476 0 0 0-39.32.01c-1.646.005-2.44-.805-2.927-2.101-.455-1.21.155-2.827 1.19-3.597.495-.368 1.024-.393 1.595-.392 12.167.007 24.336-.013 36.504.023 1.93.006 3.703-.44 5.017-1.786 1.063-1.088 1.722-2.555 1.59-4.174-.29-3.555-1.086-7.024-2.839-10.127a19.945 19.945 0 0 0-3.9-4.893c-1.017-.927-2.072-1.797-3.22-2.574-2.155-1.457-4.52-2.376-7.009-3.048-3.952-1.068-7.804-.766-11.686.505-2.986.978-5.611 2.433-7.868 4.594-.547.523-1.135.752-1.796.115a259.352 259.352 0 0 0-3.537-3.33c-.518-.482-.166-.768.198-1.076 2.41-2.039 4.964-3.861 7.956-5.199-5.369-4.23-8.281-9.66-8.206-16.46.076-6.808 3.091-12.322 8.634-16.062 9.124-6.158 20.789-4.199 27.3 4.536 7.064 9.478 4.103 21.944-4.408 27.951Zm-11.639-29.594c-7.705.065-13.498 6.145-13.513 13.39-.017 7.814 5.94 13.588 13.481 13.663 7.059.071 13.462-5.83 13.56-13.463.098-7.635-6.759-13.809-13.528-13.59Z"/>
</svg>
