<svg xmlns="http://www.w3.org/2000/svg" width="100" height="100" fill="none" viewBox="0 0 100 100">
  <path fill="#000" d="M39.376.195c.704.404 1.527.35 2.276.6 5.87 1.966 9.627 5.877 10.963 11.966 1.169 5.327-.326 9.954-3.897 13.972-.513.577-1.072 1.174-1.998.829-1.113-.416-1.484-1.553-.779-2.507.404-.545.911-1.015 1.309-1.565 5.525-7.632 1.461-18.131-7.807-19.94-7.065-1.38-13.925 3.78-14.708 10.92-.443 4.037.816 7.42 3.508 10.36.784.856.79 1.689.042 2.389-.701.657-1.543.62-2.315-.178-2.91-3.005-4.415-6.566-4.544-10.79C21.197 8.74 26.601 2.374 33.076.68c.605-.16 1.268-.113 1.817-.486h4.483Z"/>
  <path fill="#000" d="M44.619 29.538c2.953-1.678 5.726-1.686 8.37.144 2.634 1.822 3.43 4.493 3.09 7.738 2.773-1.558 5.439-1.757 8.046-.181 2.572 1.554 3.7 3.94 3.546 7.058 1.506-.873 2.953-1.259 4.553-1.228 3.243.061 6.42 2.802 6.934 5.991.245 1.523.187 3.039.13 4.552-.123 3.295-.222 6.6-.747 9.863-.872 5.42-2.527 10.577-5.342 15.325-1.157 1.952-2.26 3.938-3.468 5.857-1.362 2.166-1.702 4.503-1.439 6.987.244 2.3.11 4.61.114 6.914.002.953-.663 1.43-1.804 1.431-6.497.002-12.994 0-19.492 0-3.053 0-6.107 0-9.16.003-1.431 0-2.035-.594-2.039-2.062-.01-3.313-.021-6.627.006-9.94.006-.66-.178-1.18-.567-1.697a22.988 22.988 0 0 0-4.856-4.751c-4.421-3.224-6.96-7.666-8.444-12.804-.809-2.8-1.24-5.676-1.146-8.588.107-3.282.658-6.486 2.522-9.302 1.381-2.088 3.221-3.532 5.78-3.863.736-.095.624-.605.624-1.085 0-6.464 0-12.93.002-19.394 0-3.639-.005-7.277.006-10.915.011-3.659 3.408-6.891 7.067-7.031 3.68-.141 7.693 2.711 7.71 7.73.016 4.35.004 8.702.004 13.248Zm-11.564 8.516h-.007V55.69c0 1.688.036 3.379-.019 5.066-.037 1.151-.7 1.817-1.62 1.803-.977-.014-1.572-.735-1.574-1.928-.005-3.28-.012-6.561.007-9.841.003-.559-.048-.734-.685-.529-1.411.455-2.414 1.358-3.169 2.58-1.237 2.005-1.67 4.254-1.805 6.55-.182 3.112.236 6.172 1.168 9.147 1.285 4.104 3.328 7.683 6.904 10.29 2.178 1.588 4.132 3.454 5.735 5.654.78 1.07 1.273 2.172 1.22 3.575-.102 2.66-.016 5.326-.04 7.99-.005.585.086.853.78.851 8.186-.023 16.37-.017 24.556.003.576.002.69-.178.68-.725-.051-2.695-.056-5.39-.07-8.086a4.837 4.837 0 0 1 .121-1.048c.474-2.208 1.758-4.015 2.857-5.91 1.932-3.33 3.968-6.592 5.265-10.262 2.35-6.65 2.755-13.543 2.723-20.494-.014-2.904-2.31-4.217-4.222-4.136-2.472.106-4.148 1.983-4.058 4.407.072 1.946.013 3.897.011 5.846 0 .228.02.457-.005.682-.108.986-.833 1.704-1.686 1.685-.92-.02-1.585-.768-1.587-1.845-.008-4.547.002-9.094-.006-13.641-.004-2.113-1.858-3.974-3.953-3.998-2.639-.03-4.432 1.805-4.438 4.569-.01 4.352-.01 8.704 0 13.057.002.579-.058 1.113-.544 1.484-.49.375-1.03.53-1.631.24-.695-.336-.947-.886-.945-1.65.015-6.919.005-13.837.015-20.755 0-.722-.08-1.428-.324-2.095-.73-1.985-2.662-3.022-4.852-2.646-1.773.304-3.216 2.12-3.218 4.088-.006 7.049-.001 14.097-.003 21.145 0 1.223-.632 2.021-1.606 2.044-.931.023-1.659-.833-1.689-1.988-.004-.163.001-.325.001-.488-.002-13.512 0-27.023-.011-40.535-.002-2.862-2.785-4.787-5.484-3.827-1.923.683-2.79 2.098-2.791 4.596-.004 7.146-.001 14.292-.001 21.438Z"/>
</svg>
