<svg xmlns="http://www.w3.org/2000/svg" width="100" height="100" fill="none" viewBox="0 0 100 100">
  <path fill="#000" d="M47.075 17.185c-.67.638-1.162 1.086-1.632 1.555-4.234 4.233-8.465 8.47-12.695 12.706-.907.909-1.936 1.401-3.25 1.032-1.253-.352-1.99-1.202-2.263-2.434-.262-1.184.204-2.156 1.038-2.99A40268.08 40268.08 0 0 0 46.76 8.571c.367-.367.707-.761 1.068-1.135 1.328-1.376 3.34-1.388 4.683-.04a40252.57 40252.57 0 0 0 19.572 19.636c.881.883 1.373 1.884 1.039 3.158-.328 1.248-1.148 2.02-2.381 2.327-1.188.295-2.16-.15-2.994-.986-4.392-4.396-8.786-8.79-13.185-13.18-.336-.336-.624-.736-1.241-1.027v1.198c0 15.392-.003 30.785.004 46.178 0 1.3-.551 2.26-1.663 2.874-1.09.603-2.196.536-3.22-.176-1.016-.708-1.38-1.715-1.379-2.947.017-14.514.012-29.028.013-43.542v-3.724Zm16.911 76.753c-5.011 0-10.022.003-15.033-.002-2.042-.002-3.455-1.31-3.434-3.162.02-1.823 1.402-3.073 3.415-3.073 9.697-.003 19.394-.005 29.09 0 5.535.002 9.673-4.121 9.675-9.663.004-8.135 0-16.27.002-24.405.001-2.063 1.281-3.449 3.153-3.43 1.804.019 3.09 1.432 3.09 3.41.001 8.395.09 16.792-.026 25.185-.106 7.628-5.95 13.885-13.252 14.963-.972.143-1.94.177-2.916.176-4.588-.002-9.176 0-13.764 0ZM6.45 66.231c0-4.23-.002-8.46.002-12.691.002-1.989 1.289-3.348 3.14-3.337 1.81.011 3.101 1.417 3.102 3.392.002 8.2-.001 16.401.001 24.602.002 5.29 4.15 9.473 9.427 9.5 2.017.01 4.035-.008 6.052.004 1.876.01 3.271 1.36 3.27 3.14 0 1.711-1.407 3.12-3.21 3.085-2.826-.055-5.657.212-8.478-.17-6.178-.837-11.497-5.716-12.9-11.855a16.044 16.044 0 0 1-.414-3.662c.017-4.003.006-8.005.006-12.008h.003Zm31.858 27.706c-1.38.148-2.627-.306-3.38-1.718-.959-1.8.116-4.061 2.165-4.457a7.305 7.305 0 0 1 2.817.008c1.564.319 2.621 1.844 2.463 3.394-.156 1.534-1.517 2.738-3.136 2.772-.26.006-.522.001-.929.001Z"/>
</svg>
