<svg xmlns="http://www.w3.org/2000/svg" width="100" height="100" fill="none" viewBox="0 0 100 100">
  <path fill="#000" d="M46.978.195c.33.131.65.306.99.387 4.635 1.097 7.604 4.014 8.568 8.596.964 4.576-.56 8.456-4.33 11.353-.899.691-.898.78-.061 1.502 2.937 2.53 4.56 5.685 4.582 9.612.027 4.579.077 9.158.113 13.737.01 1.388 1.207 2.79 2.614 2.866 1.815.096 3.638.14 5.454.08 6.497-.217 12.227 3.775 14.573 10.126 2.082 5.636 4.358 11.2 6.512 16.81.313.815.797 1.247 1.628 1.472 4.833 1.313 7.353 5.547 7.006 10.683-.078 1.148-.697 1.758-1.855 1.91-.576.075-1.166.061-1.75.059-6.95-.03-13.898-.083-20.848-.094-3.28-.005-6.56.09-9.84.084-.855-.002-1.386.42-1.913.973-3.001 3.149-6.502 5.579-10.536 7.208-15.413 6.223-33.003-.592-39.784-16.256-.464-1.07-.851-2.177-1.223-3.285-.368-1.1.052-2.117.947-2.45 1.05-.392 2.096.042 2.5 1.204.87 2.493 1.816 4.944 3.327 7.13 5.69 8.233 13.508 12.523 23.553 12.223C50.669 95.723 61.66 85.403 63.13 72.05c1.47-13.347-7.465-25.976-20.566-29.102-.69-.165-.977-.028-.975.693.003 1.266.003 2.533-.038 3.798-.027.82.353 1.219 1.115 1.45 3.863 1.174 7.095 3.336 9.726 6.383 3.19 3.695 4.887 7.977 5.115 12.873.235 5.033-1.03 9.618-4.055 13.63-4.18 5.546-9.752 8.454-16.761 8.687-11.26.374-21.762-8.593-21.723-21.261.028-8.816 4.304-15.341 12.254-19.296 1.005-.5 1.422-1.045 1.334-2.143-.086-1.066-.008-2.143-.026-3.215-.017-1.01-.214-1.151-1.18-.808-4.372 1.555-8.116 4.055-11.205 7.522a27.139 27.139 0 0 0-5.749 10.19c-.048.155-.1.31-.158.461-.44 1.145-1.311 1.642-2.35 1.343-.923-.266-1.423-1.225-1.15-2.374.338-1.425.853-2.798 1.47-4.124 3.943-8.477 10.322-14.195 19.293-16.942.804-.246 1.14-.67 1.22-1.503.457-4.752 1.786-9.235 4.308-13.32 1.076-1.742 2.557-3.095 4.3-4.163 1.027-.628 1.033-.662.224-1.556-5.16-5.704-3.67-14.387 3.033-17.784C41.758.895 43.079.768 44.249.195h2.73Zm-5.445 55.41h-.015c0 .648.04 1.3-.007 1.945-.218 2.983-2.654 5.503-5.544 5.767-3.41.312-6.194-1.478-7.069-4.524-.392-1.366-.368-2.76-.358-4.158.009-1.195-.076-1.245-1.097-.676-9.541 5.323-11.76 18.611-4.48 26.826 5.885 6.642 15.655 8 22.919 3.187 7.464-4.946 10.106-14.338 6.254-22.422-1.973-4.138-5.165-7.025-9.4-8.758-.945-.387-1.154-.247-1.197.766-.03.681-.006 1.364-.006 2.046Zm-3.641-7.9h.006c0-.973-.002-1.947 0-2.921.006-2.175-.026-4.352.038-6.525.035-1.2.71-1.887 1.667-1.932 1.068-.051 1.813.514 1.963 1.725.105.844.591 1.08 1.265 1.216a27.564 27.564 0 0 1 5.824 1.88c1.218.545 2.385 1.18 3.542 1.837.553.315.913.316.907-.477-.03-3.798.086-7.603-.098-11.393-.196-4.041-3.194-7.248-7.298-8.19-3.644-.837-7.762.948-9.699 4.262-1.755 3.004-2.937 6.246-3.382 9.688-.864 6.691-.388 13.42-.336 20.134.008 1.02.519 1.87 1.469 2.372 1.98 1.047 4.094-.322 4.123-2.715.036-2.986.009-5.973.009-8.96Zm47.433 37.948v.01c1.494 0 2.988.002 4.482 0 1.064-.002 1.19-.164.946-1.204-.557-2.372-2.412-4.073-5.028-4.37-1.423-.162-2.182-.833-2.677-2.134a2412.95 2412.95 0 0 0-7.096-18.353c-1.03-2.645-2.632-4.808-5.172-6.241-2.601-1.467-5.413-1.46-8.245-1.357-.837.031-.47.624-.244.979 1.783 2.794 2.986 5.829 3.794 9.03.159.627.423 1.09 1.173 1.031 1.928-.15 2.858.894 3.597 2.585 2.798 6.396 5.738 12.729 8.602 19.096.31.689.716.974 1.485.944 1.459-.056 2.922-.016 4.383-.016ZM53.087 11.6c.08-4.055-3.235-7.475-7.334-7.567-4.104-.092-7.53 3.226-7.62 7.382-.088 4.022 3.247 7.465 7.341 7.58 4.063.115 7.531-3.255 7.613-7.395Zm15.922 74.056v.006c1.817 0 3.635-.005 5.452.001 1.3.004 1.346-.045.817-1.214-1.616-3.579-3.241-7.154-4.865-10.729a963.04 963.04 0 0 0-2.753-6.02c-.111-.24-.153-.666-.541-.561-.351.094-.258.486-.257.762.003.55.069 1.101.062 1.652-.066 5.404-1.42 10.453-4.168 15.12-.492.836-.401.973.606.98 1.882.013 3.764.003 5.647.003Z"/>
  <path fill="#000" d="M7.395 67.606c1.009-.005 1.75.764 1.739 1.803-.011 1.006-.7 1.687-1.719 1.701-1.02.015-1.705-.65-1.729-1.676-.024-1.05.699-1.824 1.709-1.828Zm42.058 2.247c-.26 3.579-1.596 6.65-4.299 9.07-.965.864-2.085.947-2.792.247-.774-.766-.744-1.938.233-2.85 2.005-1.872 2.991-4.162 3.213-6.87.133-1.633 1.302-2.394 2.577-1.809.95.437 1.1 1.284 1.068 2.212Zm-13.242 8.975c1.043-.002 1.839.738 1.848 1.72a1.785 1.785 0 0 1-1.772 1.805c-.963.014-1.795-.813-1.8-1.79a1.735 1.735 0 0 1 1.724-1.735Z"/>
</svg>
