<svg xmlns="http://www.w3.org/2000/svg" width="101" height="100" fill="none" viewBox="0 0 101 100">
  <path fill="#000" d="M54.79 34.54c0 3.09.025 6.182-.017 9.272-.011.829.273 1.055 1.07 1.05 5.1-.026 10.2.026 15.3-.028 2.044-.021 3.63.653 4.603 2.478 1.026 1.925.954 3.867-.194 5.717-.941 1.517-2.368 2.156-4.149 2.149-5.13-.022-10.261-.007-15.392-.005-.82 0-1.229.401-1.228 1.204.003 5.749.005 11.498.01 17.246.001 1.151-.076 2.278-.674 3.31-.947 1.635-2.316 2.591-4.24 2.44-1.867-.147-3.094-1.262-3.847-2.93-.403-.892-.456-1.844-.455-2.807.006-5.687.004-11.374.004-17.061 0-.939-.476-1.408-1.43-1.407-5.099-.001-10.199.011-15.299-.013-2.57-.012-4.454-1.705-4.874-4.296-.415-2.565 1.023-5.039 3.36-5.824.604-.203 1.215-.185 1.828-.185 4.915-.005 9.83.008 14.744-.008 1.88-.006 1.652.161 1.657-1.625.013-5.718.011-11.436.005-17.154-.001-1.753.482-3.307 1.873-4.447 1.325-1.086 2.835-1.358 4.42-.65 1.722.77 2.757 2.18 2.826 4.028.12 3.178.033 6.363.033 9.546h.066Z"/>
  <path fill="#000" d="M2.76 49.898c.013-13.664 5.115-25.187 14.942-34.584C24.089 9.207 31.74 5.389 40.398 3.487c4.661-1.024 9.365-1.115 14.041-.807 6.454.423 12.552 2.366 18.252 5.468 1.516.825 2.102 2.685 1.339 4.198-.778 1.543-2.605 2.267-4.16 1.53-2.139-1.013-4.271-2.027-6.531-2.748a44.113 44.113 0 0 0-9.503-1.895 37.83 37.83 0 0 0-7.57.066c-7.185.796-13.791 3.212-19.669 7.458-7.85 5.672-13.064 13.203-15.735 22.517-1.33 4.638-1.747 9.388-1.355 14.143.788 9.555 4.427 17.933 11.025 24.967.667.71 1.406 1.365 1.561 2.44.207 1.437-.364 2.744-1.607 3.417-1.326.718-2.792.504-3.896-.605a48.135 48.135 0 0 1-8.986-12.5c-2.181-4.363-3.6-8.97-4.417-13.762-.419-2.461-.512-4.957-.427-7.475Zm95.065-1.321c.032 12.865-3.58 22.894-10.694 31.597-6.913 8.459-15.78 13.872-26.465 16.322-4.482 1.027-9.013 1.324-13.557 1.045-6.745-.414-13.134-2.264-19.107-5.463-1.55-.83-2.099-2.736-1.284-4.298a3.207 3.207 0 0 1 4.284-1.363c3.046 1.542 6.18 2.822 9.517 3.598 3.997.929 8.012 1.37 12.137 1.122 8.276-.498 15.723-3.183 22.337-8.137 7.267-5.444 12.171-12.574 14.785-21.262 1.298-4.316 1.914-8.754 1.671-13.25-.512-9.5-3.678-17.99-9.984-25.215-.589-.675-1.202-1.328-1.81-1.985-1.305-1.406-1.33-3.404-.053-4.646 1.31-1.275 3.373-1.192 4.71.193 6.419 6.65 10.642 14.463 12.55 23.529.681 3.233 1.047 6.48.963 8.213Z"/>
</svg>
