<svg xmlns="http://www.w3.org/2000/svg" width="360" height="746" fill="none" viewBox="0 0 360 746">
  <g clip-path="url(#a)">
    <path fill="#DF7D52" d="M51.221 305c28.198 0 53.654-2.612 75.165-13.372 21.512-11.051 37.19-40.452 48.237-60.518l-48.237-28.223C119.119 215.392 111 221.021 98.5 228c-12.5 6.689-31 8.5-47.279 8.5-16.279 0-30.628-8.102-40.221-14.5-9.884-6.689-13.413-11.683-13.413-22.733 0-9.597 3.78-17.013 11.338-22.247 7.267-5.235 19.477-9.306 36.628-12.214l30.96-5.235c29.65-4.943 52.034-15.412 67.151-31.407 14.825-15.994 22.238-36.496 22.238-61.506 0-18.612-4.942-35.042-14.826-49.292-10.174-14.25-23.982-25.3-41.424-33.152C92.21-23.93 72.152-28 49.477-28 23.605-28 .494-22.475-19.855-11.424-40.203-.374-55.029 14.603-64.33 33.506l51.89 30.535C-.524 41.649 20.116 30.453 49.476 30.453c13.663 0 25.146 3.344 34.448 10.032 9.302 6.689 13.954 15.122 13.954 25.3 0 9.306-3.198 16.577-9.594 21.811-6.686 5.235-17.587 9.16-32.703 11.778l-35.756 6.107c-29.36 4.944-51.6 15.122-66.715 30.535C-62.296 151.429-70 171.495-70 196.213c0 30.244 10.756 54.091 32.268 71.539C-16.221 285.201 13.43 305 51.22 305Z"/>
    <path fill="#00699A" d="M126.386 596.04V202.887h158.325c44.915 0 79.911 9.736 104.989 29.206 25.451 19.471 38.177 46.43 38.177 80.877 0 23.964-6.363 44.745-19.089 62.343-12.351 17.598-29.756 30.516-52.213 38.754C404.858 428.295 429 462.555 429 516.848v79.192h-85.9v-67.959c0-22.092-5.988-40.064-17.966-53.918-11.603-13.854-27.136-20.781-46.599-20.781h-66.249V596.04h-85.9Zm154.395-317.33h-68.495v99.411h68.495c18.715 0 33.312-4.306 43.792-12.918 10.48-8.986 15.72-21.342 15.72-37.068 0-15.726-5.24-27.895-15.72-36.507-10.48-8.612-25.077-12.918-43.792-12.918Z"/>
    <path fill="#DF7D52" d="M212.286 453.382V746h-85.9V622.116H18.553V746h-66.715V440.651h66.715v119.522l193.733.001V453.382Z"/>
    <path fill="#fff" fill-opacity=".8" d="M0-1h360v747H0z"/>
  </g>
  <defs>
    <clipPath id="a">
      <path fill="#fff" d="M0 0h360v746H0z"/>
    </clipPath>
  </defs>
</svg>
