<svg xmlns="http://www.w3.org/2000/svg" width="57" height="42" fill="none" viewBox="0 0 57 42">
  <path fill="#DF4807" d="M.478 38.153c-.22-1.286.124-2.258 2.08-2.64 2.232-.435 2.216-2.367 2.249-3.992.082-4.094-.049-8.193.089-12.284.143-4.252 2.639-7.03 6.707-7.634 1.091-.162 2.75-.755 2.944.92.162 1.415 1.127 3.41-1.698 3.916-2.149.385-2.436 1.986-2.452 3.617-.039 3.946.02 7.893-.036 11.839-.058 4.07-1.68 7.155-6.212 8.64-2.941.962-3.67.67-3.671-2.382ZM42.585 17.14c0 4.69-.088 9.383.041 14.07.057 2.068-1.078 2.248-2.859 2.258-1.842.01-2.828-.32-2.81-2.319a1513.5 1513.5 0 0 0-.012-28.588C36.925.627 38.025.578 39.532.626c1.524.048 3.139-.309 3.085 1.997-.113 4.837-.034 9.678-.032 14.517Zm14.088 8.27c0 2.082-.044 4.167.013 6.249.05 1.787-1.207 1.824-2.597 1.774-1.409-.051-3.09.355-3.078-1.797.02-3.572.032-7.144-.037-10.714-.07-3.607-.52-4.16-4.334-4.582-2.383-.264-1.651-1.766-1.784-2.98-.153-1.406.532-1.969 2.088-2.057 5.62-.318 9.392 2.74 9.702 8.08.116 2.004.019 4.017.019 6.026h.008Zm-36.039.388c.03-2.676-.15-5.358.392-8.014.743-3.632 3.461-6.055 7.146-6.285.936-.059 2.232-.266 2.223 1.04-.009 1.27 1.066 3.139-1.01 3.678-2.547.66-3 2.173-2.984 4.198.028 3.646-.075 7.293.03 10.936.057 1.97-1.12 2.138-2.776 2.1-1.602-.036-3.174.145-3.038-2.074.113-1.855.023-3.72.017-5.58Z"/>
</svg>
