<?xml version="1.0" encoding="UTF-8"?>
<svg id="Layer_1" data-name="Layer 1" xmlns="http://www.w3.org/2000/svg" viewBox="0 0 131 125">
  <defs>
    <style>
      .cls-1 {
        fill: #DF4807;

    </style>
  </defs>
  <g>
    <path d="m7.852445,99.596947c-.45009-2.869736.25465-5.039978,4.255789-5.89135,4.570522-.972549,4.538177-5.28479,4.604904-8.911263.168144-9.138344-.099525-18.287186.181849-27.420288.292397-9.490982,5.401957-15.690662,13.728487-17.039768,2.234657-.362072,5.630978-1.684124,6.02562,2.055302.333073,3.156094,2.307613,7.608215-3.475563,8.73917-4.397114.859905-4.984751,4.433361-5.01758,8.073853-.079433,8.808247.040251,17.618618-.074705,26.426121-.118565,9.083878-3.438356,15.972084-12.714138,19.284317-6.021212,2.150085-7.511339,1.499252-7.514662-5.316093Z"/>
    <path d="m94.040924,52.694767c0,10.469551-.181252,20.943691.083275,31.406551.116676,4.614777-2.205505,5.016151-5.85199,5.038643-3.770836.023262-5.788933-.715126-5.752693-5.175339.172829-21.270023.173386-42.543262-.023468-63.812963-.03997-4.318001,2.208778-4.425301,5.294952-4.319634,3.119164.106795,6.424545-.688684,6.314301,4.458522-.231247,10.796953-.07016,21.60231-.064377,32.404221Z"/>
    <path d="m122.876732,71.151985c0,4.650414-.089226,9.303062.027191,13.950562.099915,3.988602-2.470909,4.072372-5.316933,3.95993-2.883438-.113937-6.323799.791672-6.299362-4.011978.04055-7.971687.064896-15.945587-.076935-23.91547-.143257-8.050247-1.063507-9.284771-8.870987-10.227161-4.878059-.588799-3.379143-3.94223-3.650162-6.652512-.313728-3.137291,1.087601-4.393002,4.272842-4.589443,11.502396-.709396,19.224251,6.115868,19.85865,18.035469.237991,4.471542.038567,8.966358.038567,13.450565.005707.000015.011421.000023.017128.000038Z"/>
    <path d="m49.109188,72.019295c.06176-5.971504-.308266-11.959362.802921-17.887375,1.519691-8.107357,7.084431-13.515953,14.6269-14.029453,1.915512-.130405,4.569366-.593697,4.550583,2.321232-.018272,2.836857,2.181671,7.007111-2.069656,8.210102-5.211262,1.474625-6.137238,4.850746-6.105652,9.37104.056862,8.137264-.153629,16.279484.061558,24.411327.116333,4.396339-2.293987,4.771774-5.683762,4.687813-3.27874-.081207-6.496342.323196-6.218334-4.631683.232224-4.13887.047638-8.301109.035442-12.453003Z"/>
  </g>
  <g>
    <path class="cls-1" d="m7.852445,99.596947c-.45009-2.869736.25465-5.039978,4.255789-5.89135,4.570522-.972549,4.538177-5.28479,4.604904-8.911263.168144-9.138344-.099525-18.287186.181849-27.420288.292397-9.490982,5.401957-15.690662,13.728487-17.039768,2.234657-.362072,5.630978-1.684124,6.02562,2.055302.333073,3.156094,2.307613,7.608215-3.475563,8.73917-4.397114.859905-4.984751,4.433361-5.01758,8.073853-.079433,8.808247.040251,17.618618-.074705,26.426121-.118565,9.083878-3.438356,15.972084-12.714138,19.284317-6.021212,2.150085-7.511339,1.499252-7.514662-5.316093Z"/>
    <path class="cls-1" d="m94.040924,52.694767c0,10.469551-.181252,20.943691.083275,31.406551.116676,4.614777-2.205505,5.016151-5.85199,5.038643-3.770836.023262-5.788933-.715126-5.752693-5.175339.172829-21.270023.173386-42.543262-.023468-63.812963-.03997-4.318001,2.208778-4.425301,5.294952-4.319634,3.119164.106795,6.424545-.688684,6.314301,4.458522-.231247,10.796953-.07016,21.60231-.064377,32.404221Z"/>
    <path class="cls-1" d="m122.876732,71.151985c0,4.650414-.089226,9.303062.027191,13.950562.099915,3.988602-2.470909,4.072372-5.316933,3.95993-2.883438-.113937-6.323799.791672-6.299362-4.011978.04055-7.971687.064896-15.945587-.076935-23.91547-.143257-8.050247-1.063507-9.284771-8.870987-10.227161-4.878059-.588799-3.379143-3.94223-3.650162-6.652512-.313728-3.137291,1.087601-4.393002,4.272842-4.589443,11.502396-.709396,19.224251,6.115868,19.85865,18.035469.237991,4.471542.038567,8.966358.038567,13.450565.005707.000015.011421.000023.017128.000038Z"/>
    <path class="cls-1" d="m49.109188,72.019295c.06176-5.971504-.308266-11.959362.802921-17.887375,1.519691-8.107357,7.084431-13.515953,14.6269-14.029453,1.915512-.130405,4.569366-.593697,4.550583,2.321232-.018272,2.836857,2.181671,7.007111-2.069656,8.210102-5.211262,1.474625-6.137238,4.850746-6.105652,9.37104.056862,8.137264-.153629,16.279484.061558,24.411327.116333,4.396339-2.293987,4.771774-5.683762,4.687813-3.27874-.081207-6.496342.323196-6.218334-4.631683.232224-4.13887.047638-8.301109.035442-12.453003Z"/>
  </g>
</svg>